<svg width="421" height="510" viewBox="0 0 421 510" fill="none" xmlns="http://www.w3.org/2000/svg">
<rect x="1" width="152" height="28" fill="white"/>
<rect x="51" y="50" width="102" height="28" fill="white"/>
<rect x="1" y="261" width="268" height="25" fill="white"/>
<rect x="224" width="45" height="25" fill="white"/>
<rect x="224" y="50" width="45" height="25" fill="white"/>
<rect x="1" y="210" width="268" height="25" fill="white"/>
<rect x="102" y="97" width="26" height="87" fill="white"/>
<rect x="175" width="26" height="184" fill="white"/>
<rect x="175" y="304" width="26" height="206" fill="white"/>
<rect x="102" y="304" width="26" height="206" fill="white"/>
<rect x="51" y="304" width="26" height="206" fill="white"/>
<rect y="304" width="26" height="206" fill="white"/>
<rect x="51" y="78" width="26" height="106" fill="white"/>
<rect x="1" y="28" width="26" height="156" fill="white"/>
<path d="M304 145C304 164.33 288.331 180 269 180C249.669 180 234 164.33 234 145C234 125.67 249.669 110 269 110C288.331 110 304 125.67 304 145Z" stroke="white" stroke-width="100"/>
<path d="M304 354C304 373.33 288.331 389 269 389C249.669 389 234 373.33 234 354C234 334.67 249.669 319 269 319C288.331 319 304 334.67 304 354Z" stroke="white" stroke-width="100"/>
<path fill-rule="evenodd" clip-rule="evenodd" d="M269 286C354.222 279.406 421 217.902 421 143C421 68.0981 354.222 6.59452 269 0V25.069C343.329 31.5258 396 84.8328 396 143C396 201.167 343.329 254.474 269 260.931V286Z" fill="white"/>
<path fill-rule="evenodd" clip-rule="evenodd" d="M269 286C354.222 279.406 421 217.902 421 143C421 68.0981 354.222 6.59452 269 0V25.069C343.329 31.5258 396 84.8328 396 143C396 201.167 343.329 254.474 269 260.931V286Z" fill="white"/>
<path fill-rule="evenodd" clip-rule="evenodd" d="M269 235C325.067 230.734 369 190.951 369 142.5C369 94.0495 325.067 54.2658 269 50V75.0686C314.458 79.186 344 111.058 344 142.5C344 173.942 314.458 205.814 269 209.931V235Z" fill="white"/>
<path fill-rule="evenodd" clip-rule="evenodd" d="M224 462.365C231.208 463.441 238.602 464 246.138 464C322.28 464 384 406.918 384 336.5C384 325.268 382.43 314.376 379.481 304H353.137C356.95 314.3 359 325.25 359 336.5C359 391.308 310.348 439 246.138 439C238.521 439 231.124 438.329 224 437.054V462.365Z" fill="white"/>
</svg>
